<?xml version="1.0" standalone="no"?>
<!DOCTYPE svg PUBLIC "-//W3C//DTD SVG 20010904//EN"
 "http://www.w3.org/TR/2001/REC-SVG-20010904/DTD/svg10.dtd">
<svg version="1.0" xmlns="http://www.w3.org/2000/svg"
 width="59.000000pt" height="50.000000pt" viewBox="0 0 59.000000 50.000000"
 preserveAspectRatio="xMidYMid meet">

<g transform="translate(0.000000,50.000000) scale(0.100000,-0.100000)"
fill="#ab0300" stroke="none">
<path d="M20 480 c-19 -19 -20 -33 -20 -229 l0 -210 26 -20 c25 -20 39 -21
271 -21 l244 0 24 25 c25 24 25 25 25 228 0 272 30 247 -298 247 -239 0 -253
-1 -272 -20z m528 -57 l3 -33 -255 0 -256 0 0 28 c0 16 3 32 7 36 4 3 117 5
252 4 l246 -3 3 -32z m2 -223 c0 -147 0 -150 -22 -155 -13 -3 -126 -4 -253 -3
l-230 3 -3 153 -3 152 256 0 255 0 0 -150z"/>
<path d="M82 423 c4 -21 33 -25 33 -3 0 8 -8 16 -18 18 -14 3 -18 -1 -15 -15z"/>
<path d="M140 426 c0 -8 4 -17 8 -20 13 -8 35 11 28 23 -10 16 -36 14 -36 -3z"/>
<path d="M200 426 c0 -8 4 -17 9 -20 11 -7 33 18 24 27 -12 12 -33 7 -33 -7z"/>
<path d="M320 224 l-61 -57 -27 27 c-33 31 -52 33 -52 7 0 -18 67 -81 87 -81
13 0 143 134 143 148 0 25 -31 10 -90 -44z"/>
</g>
</svg>
