<svg width="48" height="48" viewBox="0 0 48 48" fill="none" xmlns="http://www.w3.org/2000/svg">
<path d="M32.0679 8C32.7448 8.06391 33.4933 8.06391 34.1702 8.20416C34.8525 8.32593 35.5158 8.55516 36.1403 8.88497C36.7805 9.19386 37.3618 9.61993 37.8635 10.1436C38.8485 11.1449 39.5135 12.4488 39.7627 13.8717C39.8973 14.5649 39.965 15.2706 39.965 15.978H40V32.0601C39.9661 32.7658 39.8986 33.4689 39.7977 34.1665C39.6847 34.8837 39.4553 35.5743 39.1209 36.208C38.8119 36.8445 38.3978 37.4197 37.8985 37.9034C37.3637 38.3962 36.7721 38.807 36.1395 39.1248C35.5287 39.447 34.8765 39.6716 34.2044 39.7958C33.5116 39.9308 32.8069 39.9991 32.1021 40H15.87C15.1931 39.9361 14.4446 39.9361 13.7677 39.7958C13.0854 39.6741 12.4221 39.4448 11.7976 39.115C11.1709 38.8141 10.5968 38.3996 10.1015 37.8937C9.11644 36.8924 8.45151 35.5885 8.20226 34.1656C8.06769 33.4724 8 32.7667 8 32.0593V15.8112C8.03415 15.1085 8.10167 14.4084 8.20226 13.7137C8.31534 12.9965 8.54468 12.3059 8.87913 11.6721C9.197 11.0278 9.61709 10.4531 10.119 9.97587C10.2512 9.8445 10.3913 9.78059 10.5235 9.64034C10.9305 9.30384 11.3629 9.00743 11.816 8.75449L12.2906 8.55033C12.7683 8.34174 13.2716 8.20238 13.7852 8.14025C14.301 8.05693 14.821 8.01009 15.342 8H32.0679ZM26.8119 13.8947C29.1385 16.9895 30.1992 20.7309 29.2681 24.0211C29.1835 24.3219 29.0827 24.6172 28.966 24.9053L28.5352 24.6577C24.5032 22.1069 20.7491 19.1251 17.3305 15.7608C19.3785 18.6872 21.6466 21.4459 24.113 24.0118C20.7288 21.9133 17.5054 19.5469 14.4771 16.9364C14.8595 17.5697 15.3044 18.1625 15.8039 18.7048C18.6886 22.4421 22.0181 25.7937 25.7161 28.6804C22.9149 30.3697 18.9243 30.4488 14.9422 28.6804C13.9705 28.2611 13.0535 27.7263 12.2105 27.0804C14.0181 29.8383 16.5922 31.9773 19.5971 33.2177C23.4511 34.8185 27.2864 34.6602 30.079 33.0939L30.0775 33.1032C31.4308 32.5373 34.129 31.7061 35.5854 34.4034C35.9217 35.0493 36.6538 31.6354 33.9908 28.4076L33.9479 28.3545C33.9916 28.2215 34.0603 28.0893 34.0603 27.9562C35.3879 22.9861 32.1988 17.0526 26.8119 13.8947Z" fill="#0B0C0D"/>
</svg>
